<?xml version="1.0" encoding="utf-8"?>
<!-- Generator: Adobe Illustrator 18.1.1, SVG Export Plug-In . SVG Version: 6.00 Build 0)  -->
<!DOCTYPE svg PUBLIC "-//W3C//DTD SVG 1.1//EN" "http://www.w3.org/Graphics/SVG/1.1/DTD/svg11.dtd">
<svg version="1.1" id="Layer_1" xmlns="http://www.w3.org/2000/svg" xmlns:xlink="http://www.w3.org/1999/xlink" x="0px" y="0px"
	 viewBox="0 0 250 250" style="enable-background:new 0 0 250 250;" xml:space="preserve">
<style type="text/css">
	.st0{fill:#BB9D6E;}
</style>
<g id="Your_Icon_2_">
	<path class="st0" d="M56.2,217.8c2.4,0.2,4.5-1.4,5-3.7c-0.2,2.6,1.7,4.8,4.2,5c2.6,0.2,4.8-1.6,5.1-4.2c0.3-2.7,0.9-9.7,1.2-12.2
		c0.1,0,0.1,0,0.2,0c16.6,1.4,35.3-11,39-37.3c1.6-11.4-1.3-22.7-8.2-31.8c-4.7-6.2-10.9-10.9-17.9-13.8c0.5-1,0.9-2.1,1.1-3.3
		c0.4-3-0.3-6-2.2-8.4c-1.8-2.4-4.5-4-7.5-4.4c-5.6-0.8-10.9,2.7-12.5,8.1c-0.1,0.5-0.3,1-0.3,1.5c-0.2,1.2-0.1,2.3,0.1,3.5
		c-1.2,0.1-2.4,0.3-3.6,0.6l-3-8.1c3-2.1,5.3-5.1,6.3-8.8c0.5-1.8,0.7-3.6,0.6-5.5l-1.3-20.6c-0.1-1.9-0.6-3.8-1.3-5.5l11-9.1
		c0.3,0.1,0.5,0.3,0.8,0.4c3.9,1.9,8.3,2.2,12.4,0.8l19.5-6.6c5.1-1.7,8.9-5.8,10.4-11c0,0,0-0.1,0-0.1l9.7-0.2c1.6,4,4.7,7.3,8.9,9
		L153,60c4,1.6,8.3,1.6,12.3,0l4.3,5.4c-0.9,1.4-1.6,2.9-2.1,4.5c-0.6,2.2-0.8,4.4-0.5,6.7l2.8,20.4c0.8,6.1,5,11,10.4,13l-0.2,6.8
		c-14.3,0.5-28.1,8-35.8,21.3c-2.4,4.2-4.2,8.4-5.4,12.4c-5.1,17.9,1.7,33.5,13,41c0.1,0,0.1,0.1,0.2,0.1c-1.3,2.2-5.1,8.1-6.6,10.5
		c-1.4,2.2-0.7,5.1,1.4,6.4c2.2,1.4,5.1,0.7,6.4-1.4l0,0c-0.2,0.3-0.3,0.6-0.4,0.9c-0.6,1.9,0.2,4.1,2,5.2c2.2,1.4,5.1,0.7,6.4-1.4
		c0.6-0.9,5.2-8.2,6.7-10.8c0.1,0,0.1,0,0.2,0.1c14.9,7.5,36.9,3.1,50.2-19.8c10-17.3,6.6-38.7-7-52.1c0.9-0.8,1.6-1.6,2.2-2.7
		c0.5-0.8,0.8-1.7,1.1-2.6c1.4-5-0.7-10.3-5.2-12.9c-5.4-3.1-12.4-1.3-15.5,4.1c-0.5,0.8-0.8,1.7-1.1,2.6c-0.1,0.2-0.1,0.5-0.1,0.7
		c-1.2-0.3-2.4-0.6-3.6-0.8l0.2-6.9c5.8-1.3,10.5-5.6,12.1-11.4c0.6-2.2,0.8-4.4,0.5-6.7l-2.8-20.4c-1.2-8.9-9.4-15.1-18.3-13.9
		c-1.5,0.2-2.9,0.6-4.2,1.2l-4.1-5.3c0.7-1,1.2-2,1.7-3.1c3.5-8.4-0.6-17.9-8.9-21.3L146.3,22c-4-1.7-8.4-1.6-12.5,0
		c-4,1.7-7.1,4.8-8.8,8.8c-0.2,0.6-0.4,1.2-0.6,1.7c-0.1,0.4-0.2,0.8-0.3,1.2l-9,0.2c0-0.1,0-0.2-0.1-0.3c-1.4-4.1-4.3-7.4-8.2-9.4
		c-3.9-1.9-8.3-2.2-12.4-0.8l-19.5,6.6c-5.1,1.7-9,5.8-10.4,11c-0.9,3.2-0.8,6.5,0.2,9.7c0.3,0.8,0.6,1.5,1,2.2l-10.6,8.7
		c-2.9-1.9-6.4-2.8-9.9-2.6c-6.8,0.4-12.7,5.2-14.6,11.8c-0.5,1.8-0.7,3.6-0.6,5.5L31.4,97c0.6,8.8,8,15.5,16.8,15.2l2.9,7.9
		c-11.4,5.1-20.4,15-23.9,27.5c-0.5,1.9-0.9,3.8-1.2,5.8c-3.7,26.3,10.9,43.3,27.2,46.6c0.1,0,0.1,0,0.2,0.1
		c-0.4,3.1-1.1,11.6-1.2,12.7C51.8,215.3,53.7,217.6,56.2,217.8z M210.4,176.6c-7.9,13.6-23.5,23.5-37.9,16.2c-4.4-2.3-9.7-1-12,2.8
		c2.2-3.9,0.7-9.1-3.5-11.8c-13.5-8.9-12.6-27.4-4.8-41c9.3-16,29.9-21.5,46-12.2C214.3,139.9,219.7,160.6,210.4,176.6z
		 M202.1,119.8c0.6-1,1.8-1.3,2.8-0.7c0.8,0.5,1.2,1.4,0.9,2.3c0,0.2-0.1,0.3-0.2,0.5c-0.6,1-1.8,1.3-2.8,0.7c0,0,0,0,0,0
		c0,0,0,0,0,0C201.9,122,201.6,120.7,202.1,119.8z M190.1,73.5l2.8,20.4c0.1,1,0.1,1.9-0.2,2.8c-0.5,1.6-1.5,3-2.8,3.9l0.2-6.6
		c0.1-2.6-1.9-4.7-4.5-4.8c-2.2-0.1-4.1,1.4-4.6,3.4c-0.1,0.4-0.2,0.7-0.2,1.1l-0.2,5.6c-0.8-1-1.3-2.1-1.5-3.4l-2.8-20.4
		c-0.1-0.5-0.1-1,0-1.4l3.2,4.1c1.6,2,4.5,2.4,6.5,0.8c2-1.6,2.4-4.5,0.8-6.5l-3.7-4.7C186.5,67.4,189.6,69.9,190.1,73.5z
		 M137.5,30.6c1.7-0.7,3.6-0.7,5.3,0l19.1,7.8c3,1.2,4.7,4.4,4.2,7.5l-2.2-2.8c-1.6-2-4.5-2.4-6.5-0.8c-0.8,0.6-1.3,1.5-1.6,2.4
		c-0.4,1.4-0.1,2.9,0.8,4.2l2.3,3c-0.8,0-1.5-0.2-2.3-0.5l-19.1-7.8c-0.4-0.2-0.8-0.4-1.2-0.6l3.5-0.1c2.6-0.1,4.6-2.2,4.6-4.8
		c-0.1-2.6-2.2-4.6-4.8-4.6l-5.5,0.1C134.9,32.3,136,31.2,137.5,30.6z M77.9,39l19.5-6.6c1.8-0.6,3.6-0.5,5.3,0.3
		c0.8,0.4,1.4,0.9,2,1.5l-3.7,0.1c-2.1,0-3.8,1.5-4.4,3.4c-0.1,0.4-0.2,0.9-0.2,1.4c0.1,2.6,2.2,4.6,4.8,4.6l3.6-0.1
		c-0.8,0.9-1.8,1.6-3,2l-19.5,6.6c-0.5,0.2-0.9,0.3-1.4,0.3l3.4-2.8c2-1.6,2.3-4.6,0.6-6.6c-1.6-2-4.6-2.3-6.6-0.6l-5.2,4.2
		C72.8,43.5,74.8,40.1,77.9,39z M40.7,96.4l-1.3-20.6c-0.2-3.8,2.8-7.2,6.5-7.4c0.4,0,0.8,0,1.2,0L43.8,71c-0.8,0.6-1.3,1.4-1.5,2.3
		c-0.4,1.4-0.1,3,0.9,4.2c1.6,2,4.6,2.3,6.6,0.6l3.5-2.9l1.3,20.1c0.1,0.8,0,1.6-0.2,2.4c-0.2,0.7-0.5,1.3-0.8,1.8l-1.7-4.5
		c-0.9-2.4-3.6-3.7-6-2.8c-1.5,0.5-2.5,1.7-2.9,3.1c-0.3,0.9-0.2,1.9,0.1,2.9l1.4,3.7C42.3,101,40.8,98.9,40.7,96.4z M73.1,116.1
		c-0.2-0.3-0.5-0.8-0.4-1.5c0.1-1.1,1.2-1.9,2.3-1.7c0.7,0.1,1.1,0.5,1.3,0.8c0.2,0.3,0.5,0.8,0.4,1.5c0,0.1,0,0.2-0.1,0.3
		c-0.3,1-1.2,1.6-2.2,1.4l0,0c0,0,0,0,0,0C73.7,116.7,73.3,116.3,73.1,116.1z M35.1,154.7c2.6-18.4,19.6-31.2,38-28.6
		c8.9,1.3,16.8,5.9,22.2,13.1c5.4,7.2,7.7,16,6.4,24.9c-2.9,20.6-16.8,30.3-29.1,29.3c-4.9-0.4-9.3,2.7-10,7.1
		c0.5-4.4-2.8-8.6-7.7-9.6C39,187.7,32.9,170.2,35.1,154.7z"/>
</g>
<g>
</g>
<g>
</g>
<g>
</g>
<g>
</g>
<g>
</g>
<g>
</g>
</svg>
