<?xml version="1.0" encoding="utf-8"?>
<!-- Generator: Adobe Illustrator 18.1.1, SVG Export Plug-In . SVG Version: 6.00 Build 0)  -->
<!DOCTYPE svg PUBLIC "-//W3C//DTD SVG 1.1//EN" "http://www.w3.org/Graphics/SVG/1.1/DTD/svg11.dtd">
<svg version="1.1" id="Layer_1" xmlns="http://www.w3.org/2000/svg" xmlns:xlink="http://www.w3.org/1999/xlink" x="0px" y="0px"
	 viewBox="0 0 250 144.5" style="enable-background:new 0 0 250 144.5;" xml:space="preserve">
<style type="text/css">
	.st0{fill:#BB9D6E;}
</style>
<g>
	<path class="st0" d="M181.6,83.3C181.6,83.3,181.7,83.3,181.6,83.3c10.6-3.2,21.5-7.5,32-13.2c16.8-9.8,25.5,0.4,19.2,15.8
		c-5.3,14.6-33.7,41.7-58.4,47.9c-9.5-6.7-28-11.2-49.5-11.3c-21.4,0.1-40,4.7-49.5,11.3c-24.7-6.2-53-33.3-58.4-47.9
		c-6.2-15.4,2.4-25.6,19.2-15.8c10.5,5.8,21.5,10,32,13.2c22.6,6.8,43.4,8.5,54.2,8.5l6,0C139.4,91.7,159.6,90,181.6,83.3z"/>
	<g id="XMLID_1_">
		<path class="st0" d="M151.1,14.9c8.8,4.4,23.1,45.8,28.7,62.8c-21.3,6.2-40.7,7.9-51.3,8l-6,0c-10.6,0-30.5-1.6-52.4-8
			c5.6-17,19.9-58.4,28.7-62.9c10.1-5.1,18.8,3.3,25.8,4.1h-1.3c0.5,0.1,1.1,0.1,1.7,0c0.6,0.1,1.2,0,1.7,0h-1.3
			C132.3,18.2,141,9.8,151.1,14.9z M147.7,47c0-1.8-1.5-3.3-3.3-3.3c-1.7,0-3.1,1.3-3.3,2.9l-10.3-1.5l-4.5-9.2
			c1.2-0.5,2.1-1.7,2.1-3.1c0-1.8-1.5-3.3-3.3-3.3s-3.3,1.5-3.3,3.3c0,1.4,0.9,2.6,2.1,3.1l-4.5,9.1L109,46.6
			c-0.2-1.6-1.6-2.9-3.3-2.9c-1.8,0-3.3,1.5-3.3,3.3c0,1.8,1.5,3.3,3.3,3.3c1.1,0,2.1-0.6,2.7-1.4l7.3,7.1l-1.8,10.7
			c-0.4-0.2-0.9-0.3-1.3-0.3c-1.8,0-3.3,1.5-3.3,3.3s1.5,3.3,3.3,3.3c1.8,0,3.3-1.5,3.3-3.3c0-0.7-0.2-1.3-0.6-1.9l9.7-5.1l9.7,5.1
			c-0.4,0.5-0.6,1.2-0.6,1.9c0,1.8,1.5,3.3,3.3,3.3c1.8,0,3.3-1.5,3.3-3.3s-1.5-3.3-3.3-3.3c-0.5,0-0.9,0.1-1.3,0.3L134.3,56
			l7.3-7.1c0.6,0.9,1.6,1.4,2.7,1.4C146.2,50.3,147.7,48.9,147.7,47z"/>
	</g>
</g>
<g>
</g>
<g>
</g>
<g>
</g>
<g>
</g>
<g>
</g>
<g>
</g>
</svg>
