<?xml version="1.0" encoding="utf-8"?>
<!-- Generator: Adobe Illustrator 18.1.1, SVG Export Plug-In . SVG Version: 6.00 Build 0)  -->
<!DOCTYPE svg PUBLIC "-//W3C//DTD SVG 1.1//EN" "http://www.w3.org/Graphics/SVG/1.1/DTD/svg11.dtd">
<svg version="1.1" id="Layer_1" xmlns="http://www.w3.org/2000/svg" xmlns:xlink="http://www.w3.org/1999/xlink" x="0px" y="0px"
	 viewBox="0 0 321.6 256.3" style="enable-background:new 0 0 321.6 256.3;" xml:space="preserve">
<style type="text/css">
	.st0{fill:#87724F;}
</style>
<g id="Your_Icon">
	<path class="st0" d="M260.9,176.5c-1.8,0-3.3,0.6-4.7,1.5l-29.6-49.8l29.6-49.8c1.4,0.8,3,1.5,4.7,1.5c5.2,0,9.4-4.2,9.4-9.4
		c0-5.2-4.2-9.4-9.4-9.4c-5.2,0-9.4,4.2-9.4,9.4c0,0,0,0.1,0,0.1l-57.8,0.7l-28.3-50.5c2.9-1.6,4.9-4.6,4.9-8.1
		c0-5.2-4.2-9.4-9.4-9.4c-5.2,0-9.4,4.2-9.4,9.4c0,3.5,2,6.5,4.9,8.1l-28.3,50.5l-57.8-0.7c0,0,0-0.1,0-0.1c0-5.2-4.2-9.4-9.4-9.4
		c-5.2,0-9.4,4.2-9.4,9.4c0,5.2,4.2,9.4,9.4,9.4c1.8,0,3.3-0.6,4.7-1.5l29.6,49.8L65.5,178c-1.4-0.8-3-1.5-4.7-1.5
		c-5.2,0-9.4,4.2-9.4,9.4c0,5.2,4.2,9.4,9.4,9.4c5.2,0,9.4-4.2,9.4-9.4c0,0,0-0.1,0-0.1l57.8-0.7l28.3,50.5
		c-2.9,1.6-4.9,4.6-4.9,8.1c0,5.2,4.2,9.4,9.4,9.4c5.2,0,9.4-4.2,9.4-9.4c0-3.5-2-6.5-4.9-8.1l28.3-50.5l57.8,0.7c0,0,0,0.1,0,0.1
		c0,5.2,4.2,9.4,9.4,9.4c5.2,0,9.4-4.2,9.4-9.4C270.3,180.7,266,176.5,260.9,176.5z"/>
</g>
<g>
</g>
<g>
</g>
<g>
</g>
<g>
</g>
<g>
</g>
<g>
</g>
</svg>
